PathFileType	4	(X/Y/Z)	C:/Users/opensim2020/Desktop/walking_exp_matlab/subject01_walking09_straight_03.trc	
DataRate	CameraRate	NumFrames	NumMarkers	Units	OrigDataRate	OrigDataStartFrame	OrigNumFrames	
100.00	100.00	8	43	mm	100.00	2887	348	
Frame#	Time	LFHD			RFHD			LBHD			RBHD			C7			T10			CLAV			STRN			RBAK			LSHO			LUPA			LELB			LFRM			LWRA			LWRB			LFIN			RSHO			RUPA			RELB			RFRM			RWRA			RWRB			RFIN			LASI			RASI			LPSI			RPSI			LTHI			LKNE			LTIB			LANK			LHEE			LTOE			RTHI			RKNE			RTIB			RANK			RHEE			RTOE			*39			*40			*41			*42			
		X1	Y1	Z1	X2	Y2	Z2	X3	Y3	Z3	X4	Y4	Z4	X5	Y5	Z5	X6	Y6	Z6	X7	Y7	Z7	X8	Y8	Z8	X9	Y9	Z9	X10	Y10	Z10	X11	Y11	Z11	X12	Y12	Z12	X13	Y13	Z13	X14	Y14	Z14	X15	Y15	Z15	X16	Y16	Z16	X17	Y17	Z17	X18	Y18	Z18	X19	Y19	Z19	X20	Y20	Z20	X21	Y21	Z21	X22	Y22	Z22	X23	Y23	Z23	X24	Y24	Z24	X25	Y25	Z25	X26	Y26	Z26	X27	Y27	Z27	X28	Y28	Z28	X29	Y29	Z29	X30	Y30	Z30	X31	Y31	Z31	X32	Y32	Z32	X33	Y33	Z33	X34	Y34	Z34	X35	Y35	Z35	X36	Y36	Z36	X37	Y37	Z37	X38	Y38	Z38	X39	Y39	Z39	X40	Y40	Z40	X41	Y41	Z41	X42	Y42	Z42	X43	Y43	Z43	

44	0.430	-1114.27673	-873.32654	1668.02417	-1001.59143	-863.59338	1680.23169	-1106.38196	-974.61456	1594.67847	-986.48846	-966.88147	1604.98474	-1056.01245	-978.66205	1420.21887	-1040.15259	-1006.90729	1128.12952	-1055.79700	-830.42334	1360.73828	-1055.99487	-783.50714	1205.26965	-968.21045	-1026.11389	1229.12231	-1216.17969	-894.79254	1383.02991	-1295.87207	-924.62817	1195.68860	-1292.42029	-936.11475	1046.12183	-1310.98962	-899.04211	937.17963	-1281.44702	-827.90369	819.42749	-1313.09875	-879.21436	816.66553	-1314.73145	-834.29163	743.82330	-904.07880	-892.56165	1388.41333	-792.16510	-929.19476	1191.03235	-782.83252	-916.42358	1065.31946	-755.59235	-860.43811	955.93134	-785.36743	-756.88147	861.06555	-741.13446	-794.59125	852.95319	-748.75885	-739.84778	785.41449	-1137.47192	-825.27789	925.02448	-921.36481	-839.84180	922.34821	-1099.96570	-1015.31293	935.91943	-955.58612	-1022.60718	940.79199	-1196.04431	-792.30835	604.17902	-1175.44177	-773.36475	472.18341	-1192.19556	-798.61292	283.83017	-1142.68750	-804.06433	65.96884	-1090.39453	-848.46570	35.50441	-1149.11108	-656.06305	32.78083	-866.91663	-927.10889	590.59265	-883.57794	-942.04761	429.79514	-879.14929	-1069.73499	305.52570	-924.24548	-1184.11133	129.91481	-977.81927	-1241.04761	116.58596	-929.57922	-1079.59631	29.75130	-1024.95703	-883.94769	1708.78906	-3101.99585	1973.12378	1023.25818	-3140.74341	2012.51575	1021.94434			 
45	0.440	-1116.13257	-867.11218	1668.51794	-1003.42865	-857.57935	1680.72864	-1108.44702	-968.33868	1595.12817	-988.52777	-960.81824	1605.36279	-1058.10791	-972.30731	1420.76355	-1042.75037	-1000.64795	1128.64453	-1057.79102	-824.23291	1361.29529	-1058.08374	-777.19397	1205.87561	-970.62720	-1019.97327	1229.60364	-1218.33276	-888.31195	1383.82043	-1298.27173	-917.31750	1196.55750	-1294.73279	-928.22998	1046.81299	-1313.22583	-890.30792	938.10553	-1283.72290	-818.17902	820.99115	-1315.22144	-869.35699	817.86163	-1316.77124	-823.96631	745.23126	-906.20721	-885.94208	1388.72095	-794.10327	-923.33051	1191.80518	-784.60925	-911.22992	1066.04187	-757.20605	-856.20996	956.28442	-787.29224	-753.76843	860.31537	-742.50482	-791.31006	852.78412	-750.35419	-737.38898	784.56720	-1139.78247	-818.93115	925.18439	-923.69086	-833.70007	923.31653	-1102.26160	-1008.98120	936.29504	-957.82672	-1016.54150	941.38068	-1197.35498	-788.38892	602.98663	-1176.48669	-769.21387	471.67706	-1192.95483	-796.07965	283.46848	-1142.48108	-803.68634	66.01247	-1090.31628	-848.46143	35.58449	-1148.94482	-655.72595	32.53281	-867.28687	-915.58844	590.48413	-883.14105	-929.19049	429.99490	-879.48999	-1059.09741	308.13086	-924.57703	-1177.58374	135.66188	-978.74902	-1233.79553	124.37318	-930.08789	-1078.52112	30.24553	-1026.69409	-877.91669	1709.38989	-3101.89063	1973.07690	1023.85626	-3140.74292	2012.55737	1022.10406			 
46	0.450	-1117.89612	-860.91809	1669.04504	-1005.25714	-851.53168	1681.05737	-1110.35217	-962.13354	1595.59497	-990.40277	-954.73718	1605.77148	-1060.24683	-966.32086	1421.28992	-1045.40833	-994.48181	1129.09106	-1059.29822	-818.13666	1361.70886	-1060.17432	-770.98785	1206.33508	-973.13678	-1013.92517	1230.01575	-1220.41443	-881.88007	1384.58484	-1300.65906	-910.01874	1197.37952	-1297.04834	-920.33392	1047.39734	-1315.44458	-881.48932	939.01868	-1286.02246	-807.90900	822.81207	-1317.22046	-859.45703	818.96063	-1318.80737	-813.45776	746.68518	-908.61377	-879.65112	1388.98450	-796.12921	-917.60211	1192.38245	-786.47095	-906.07269	1066.63049	-758.76160	-851.97272	956.58154	-788.82159	-750.39386	859.65405	-743.82507	-787.87000	852.55353	-751.86511	-734.54407	783.76514	-1141.99451	-812.76373	925.21130	-926.03534	-827.88971	924.02820	-1104.65906	-1003.13171	936.58716	-960.01672	-1010.34741	941.38605	-1198.82239	-784.48010	602.04395	-1177.55994	-765.41516	471.17618	-1193.44458	-793.85358	283.14966	-1142.35486	-803.40424	66.08759	-1090.21826	-848.33069	35.62085	-1149.06824	-655.37109	32.13545	-867.59375	-904.75891	590.54053	-882.69928	-915.51599	429.82755	-879.81293	-1048.76636	311.15643	-924.94769	-1170.69031	141.39188	-979.82239	-1226.31873	132.89720	-930.40894	-1077.53186	30.66883	-1028.52100	-871.61237	1709.46960	-3101.92749	1973.07971	1023.49280	-3140.83594	2012.49622	1022.09015			 
47	0.460	-1119.54321	-854.77429	1669.45471	-1004.87561	-843.71472	1683.06592	-1112.24854	-955.94855	1595.98218	-992.26996	-948.76642	1606.08850	-1062.34351	-960.11316	1421.58240	-1048.00415	-988.48547	1129.51685	-1061.63782	-811.94751	1362.17590	-1062.19373	-764.83856	1206.76709	-975.69641	-1008.02814	1230.34851	-1222.25183	-875.37195	1385.19910	-1302.98364	-902.69189	1198.11560	-1299.43823	-912.40094	1047.96729	-1317.73499	-872.62964	939.87952	-1288.34106	-797.72614	824.47870	-1319.26343	-849.39673	820.02362	-1320.80981	-802.72906	748.07135	-910.31042	-873.94202	1389.35486	-798.14948	-912.07098	1192.79822	-788.04144	-901.09485	1067.22168	-760.22205	-847.73248	956.83435	-790.47559	-747.22607	858.82001	-745.07922	-784.88232	852.38763	-753.19458	-731.59082	782.82458	-1144.10364	-806.68658	925.13641	-928.10730	-822.05328	924.74280	-1106.81519	-997.16638	936.89380	-962.03046	-1004.88318	941.77112	-1199.99036	-780.26373	601.75903	-1178.62927	-761.90240	470.64645	-1193.80322	-792.04968	282.79523	-1142.19641	-803.19220	66.05304	-1090.07703	-848.13269	35.54232	-1148.90710	-655.19641	31.93593	-867.86786	-892.64142	590.35498	-882.53558	-901.97449	430.03296	-880.14606	-1037.06177	313.88144	-925.30914	-1162.99719	147.53838	-980.65552	-1218.01294	140.57735	-930.82031	-1075.95056	31.53732	-1030.13281	-865.54095	1709.93103	-3101.98706	1973.06982	1023.39624	-3140.67139	2012.47986	1021.98016			 
48	0.470	-1121.11877	-848.65930	1669.87793	-1008.32465	-839.56824	1681.80017	-1114.03711	-949.85620	1596.36511	-994.00928	-942.82806	1606.35559	-1064.37744	-954.14038	1422.13623	-1050.55701	-982.54065	1129.85620	-1063.02563	-805.99731	1362.38867	-1064.13318	-758.76166	1207.04700	-978.28503	-1002.10535	1230.53796	-1224.08997	-868.97424	1385.81226	-1305.28699	-895.36652	1198.79639	-1301.83594	-904.40381	1048.48120	-1320.08411	-863.57257	940.61652	-1290.58508	-787.41327	826.18896	-1321.34375	-839.11200	821.06726	-1322.75122	-791.74030	749.60278	-912.24762	-868.75970	1389.55066	-800.11505	-906.70331	1193.11182	-789.65308	-896.16919	1067.66956	-761.59424	-843.57367	956.97827	-791.75140	-743.94623	858.05188	-746.26215	-781.27515	852.08337	-754.44922	-728.79645	782.04535	-1146.09839	-800.83649	925.11151	-930.10120	-816.27777	925.44562	-1108.88696	-991.30518	937.10211	-964.01221	-999.35773	941.72974	-1200.89685	-776.55579	601.23236	-1179.80249	-758.53589	470.16153	-1194.10132	-790.41931	282.86139	-1142.10400	-803.04419	66.06840	-1089.84595	-848.07654	35.35078	-1149.03723	-655.05823	31.88361	-868.11249	-881.14862	590.30359	-882.67847	-888.82947	430.37900	-880.74841	-1025.40161	316.52966	-925.77692	-1154.26770	152.81738	-981.36182	-1209.31921	148.39217	-931.94849	-1073.90564	32.62614	-1031.68542	-859.55878	1710.23218	-3101.94287	1973.28418	1023.42023	-3140.56494	2012.54443	1022.05829			 
49	0.480	-1122.57922	-842.57837	1670.21033	-1009.66425	-833.52417	1682.30212	-1115.68237	-943.80255	1596.70789	-995.68213	-936.87683	1606.55737	-1066.33618	-948.06708	1422.25293	-1052.97754	-976.74542	1130.21326	-1064.61243	-800.00446	1362.63318	-1065.97314	-752.84100	1207.22754	-980.76068	-996.35602	1230.72437	-1225.89380	-862.58374	1386.33130	-1307.67041	-888.13959	1199.51111	-1304.24854	-896.36566	1048.91638	-1322.34595	-854.47992	941.51691	-1292.80054	-776.91284	827.89807	-1323.41333	-828.55865	822.18005	-1324.66235	-780.32959	751.00256	-914.11810	-862.46704	1389.60779	-802.08521	-901.56866	1193.24829	-791.24780	-891.39178	1067.98352	-762.94080	-839.47064	957.10309	-792.86310	-740.69879	857.32465	-747.11786	-777.36530	851.78607	-755.58936	-725.91919	781.23798	-1148.01892	-795.10583	925.09186	-931.99585	-810.75153	925.85333	-1110.68726	-985.63721	937.32123	-965.91229	-993.84027	941.37476	-1202.06055	-772.59357	600.95642	-1180.95056	-755.34210	469.73874	-1194.41077	-789.60516	282.20187	-1141.94873	-802.95532	66.02443	-1090.02844	-848.20062	35.84260	-1149.11243	-654.95734	31.72282	-868.49091	-869.74463	590.24622	-882.89185	-874.90265	430.45831	-881.29681	-1012.91949	318.90634	-926.25500	-1145.18945	158.05922	-982.09167	-1199.62122	155.28241	-932.53766	-1070.48096	34.22316	-1033.15759	-853.51514	1710.48462	-3102.04736	1973.06201	1023.43964	-3140.80298	2012.53223	1022.04010			 
50	0.490	-1123.93066	-836.57019	1670.52612	-1010.93555	-827.65100	1682.44666	-1117.26770	-937.80450	1597.00281	-997.23047	-931.01294	1606.71582	-1068.22632	-942.30731	1422.67126	-1055.29065	-971.00067	1130.48352	-1066.81287	-793.91608	1362.88318	-1067.71069	-747.05280	1207.40845	-983.14935	-990.72583	1230.86011	-1227.63831	-856.26312	1386.73889	-1309.76257	-880.77014	1199.99878	-1306.64038	-888.27094	1049.24670	-1324.59546	-845.14917	942.18152	-1294.91492	-766.25800	829.59406	-1325.53406	-817.94312	823.10388	-1326.65698	-768.86133	752.69794	-915.78558	-856.99487	1389.60242	-804.02356	-896.69910	1193.28833	-792.87152	-886.75574	1068.17847	-764.26074	-835.45996	957.16974	-794.11981	-737.55145	856.53223	-748.10657	-774.07922	851.37213	-756.53491	-723.27905	780.42456	-1149.80676	-789.53772	925.14929	-933.68524	-805.19830	926.22980	-1112.38611	-980.12585	937.43799	-967.47339	-988.52820	941.02625	-1203.28052	-768.66852	600.75787	-1182.36121	-752.35980	469.29526	-1194.66931	-788.61823	282.01334	-1141.94031	-802.90747	65.95815	-1089.88013	-847.90399	35.63881	-1149.08655	-654.93927	31.75062	-869.11310	-858.99854	590.35272	-883.14056	-861.24316	430.68301	-881.80280	-1000.42871	321.21793	-926.94873	-1135.94763	163.53595	-983.00330	-1190.25452	162.18489	-932.87207	-1065.64746	37.01343	-1034.47998	-847.59637	1710.71399	-3101.83447	1973.19983	1023.53815	-3140.74976	2012.54602	1021.99213			 
51	0.500	-1125.17969	-830.58356	1670.79236	-1012.18207	-821.77808	1682.67773	-1118.76868	-931.85168	1597.29333	-998.69977	-925.24658	1606.86560	-1070.04810	-936.23480	1422.87036	-1057.39050	-965.35028	1130.72620	-1068.28674	-788.09869	1362.97778	-1069.32190	-741.34991	1207.46924	-985.49261	-985.15997	1230.96521	-1229.26636	-849.95294	1387.06372	-1311.67017	-873.21002	1200.45618	-1309.08264	-880.12854	1049.52637	-1326.91284	-835.76544	943.04901	-1296.87354	-755.56635	831.34692	-1327.69983	-806.96466	824.18524	-1328.57544	-757.10284	754.37524	-917.40192	-851.51703	1389.65381	-805.95514	-891.97009	1193.27551	-794.62238	-882.18585	1068.20984	-765.51587	-831.57605	957.23059	-795.06458	-734.38861	855.73242	-749.06683	-770.97925	851.10217	-757.26263	-720.64404	779.62231	-1151.50452	-784.11346	925.24915	-935.22638	-799.75146	926.55609	-1113.81628	-974.71875	937.56812	-968.95740	-983.07355	940.50665	-1204.42932	-764.87708	600.47382	-1183.56128	-749.39215	468.87152	-1194.88074	-787.49377	281.83096	-1141.92468	-802.87848	65.91828	-1089.95776	-848.08539	35.78025	-1148.94470	-654.94495	31.53553	-869.77002	-847.38959	590.27478	-883.62427	-847.93707	431.02469	-882.32092	-988.72803	323.73010	-928.32867	-1125.27795	167.86433	-984.79779	-1180.26343	167.87514	-932.27423	-1057.91064	40.52094	-1035.73560	-841.78009	1710.87402	-3101.98999	1973.16455	1023.32556	-3140.71509	2012.42957	1021.87433			 
